<svg version="1.1" height="512.000000" viewBox="0.000000 0.000000 1024.000000 1024.000000" xmlns="http://www.w3.org/2000/svg" xmlns:xlink="http://www.w3.org/1999/xlink" overflow="hidden"><path d=" M 554.500000 616.200012 C 550.599976 615.700012 544.599976 615.500000 536.500000 615.500000 C 523.500000 615.500000 510.700012 616.400024 498.000000 618.099976 C 485.399994 619.799988 472.200012 622.900024 458.600006 627.299988 C 445.000000 631.700012 433.100006 637.400024 422.899994 644.200012 C 412.700012 651.099976 404.299988 660.200012 397.700012 671.599976 C 391.100006 683.000000 387.799988 696.000000 387.799988 710.400024 C 387.799988 724.099976 390.700012 736.700012 396.399994 747.900024 C 402.200012 759.200012 409.700012 768.500000 418.899994 775.700012 C 428.100006 782.900024 438.799988 789.099976 450.899994 794.099976 C 463.000000 799.099976 475.299988 802.700012 487.700012 804.799988 C 500.100006 806.900024 512.500000 807.900024 525.099976 807.900024 C 539.299988 807.900024 553.000000 806.299988 566.099976 803.099976 C 579.200012 799.900024 591.400024 795.099976 602.500000 788.700012 C 613.700012 782.299988 622.599976 773.400024 629.400024 761.799988 C 636.099976 750.299988 639.500000 736.900024 639.500000 721.700012 C 639.500000 715.599976 638.599976 709.599976 636.900024 703.700012 C 635.200012 697.799988 633.400024 692.700012 631.599976 688.200012 C 629.799988 683.799988 626.400024 678.700012 621.700012 672.900024 C 616.900024 667.099976 613.299988 662.799988 610.799988 660.000000 C 608.299988 657.200012 603.599976 652.900024 596.599976 647.299988 C 589.599976 641.700012 585.099976 638.099976 583.200012 636.599976 C 581.200012 635.099976 576.099976 631.400024 567.900024 625.599976 C 559.700012 619.799988 555.200012 616.599976 554.500000 616.200012 Z M 572.500000 312.299988 C 564.900024 297.000000 554.599976 284.299988 541.599976 274.200012 C 528.599976 264.100006 514.200012 259.100006 498.500000 259.100006 C 488.200012 259.100006 478.100006 261.500000 468.100006 266.299988 C 458.200012 271.100006 450.000000 277.500000 443.600006 285.600006 C 432.299988 300.100006 426.700012 319.700012 426.700012 344.500000 C 426.700012 355.799988 427.899994 367.700012 430.399994 380.399994 C 432.899994 393.000000 436.700012 405.700012 442.000000 418.299988 C 447.299988 430.899994 453.700012 442.299988 461.100006 452.299988 C 468.600006 462.399994 477.799988 470.600006 488.700012 477.000000 C 499.600006 483.399994 511.500000 486.600006 524.200012 486.600006 C 533.299988 486.600006 542.799988 484.600006 552.700012 480.500000 C 562.599976 476.500000 570.700012 471.100006 576.799988 464.500000 C 589.799988 450.799988 596.299988 431.299988 596.299988 406.000000 C 596.299988 391.500000 594.200012 376.100006 590.000000 359.799988 C 586.000000 343.500000 580.099976 327.700012 572.500000 312.299988 Z"/><path d=" M 814.099976 136.399994 L 208.000000 136.399994 C 164.000000 136.399994 128.000000 172.399994 128.000000 216.399994 L 128.000000 829.299988 C 128.000000 873.299988 164.000000 909.299988 208.000000 909.299988 L 814.099976 909.299988 C 858.099976 909.299988 894.099976 873.299988 894.099976 829.299988 L 894.099976 216.399994 C 894.099976 172.399994 858.099976 136.399994 814.099976 136.399994 Z M 772.299988 207.500000 C 772.299988 207.500000 753.599976 230.300003 776.500000 271.899994 C 776.500000 271.899994 780.700012 285.000000 780.000000 293.399994 C 780.000000 293.399994 772.500000 332.799988 780.099976 367.399994 C 780.099976 367.399994 789.000000 476.100006 780.599976 494.700012 C 780.599976 494.700012 777.200012 519.599976 753.000000 514.799988 C 753.000000 514.799988 730.900024 514.799988 731.500000 472.600006 C 731.500000 472.600006 728.700012 444.200012 731.500000 390.200012 C 731.500000 390.200012 735.700012 347.299988 734.299988 320.299988 C 734.299988 320.299988 730.099976 287.100006 735.700012 275.299988 C 735.700012 275.299988 749.500000 256.600006 746.799988 228.199997 L 746.299988 226.300003 L 647.599976 303.700012 C 648.900024 305.899994 650.200012 308.000000 651.400024 310.200012 C 660.700012 327.399994 665.400024 347.000000 665.400024 369.100006 C 665.400024 386.799988 662.400024 402.700012 656.400024 416.799988 C 650.400024 430.899994 643.099976 442.299988 634.500000 451.000000 C 625.900024 459.700012 617.400024 467.700012 608.900024 474.899994 C 600.400024 482.100006 593.200012 489.700012 587.200012 497.500000 C 581.200012 505.399994 578.200012 513.400024 578.200012 521.799988 C 578.200012 530.599976 582.099976 539.299988 590.000000 547.700012 C 597.900024 556.200012 607.299988 564.500000 618.299988 572.700012 C 629.299988 580.900024 640.400024 589.900024 651.599976 599.799988 C 662.799988 609.599976 672.299988 622.400024 680.099976 638.099976 C 688.000000 653.799988 691.900024 671.200012 691.900024 690.400024 C 691.900024 712.700012 685.900024 734.000000 673.900024 754.099976 C 656.500000 784.000000 630.799988 806.099976 596.799988 820.200012 C 562.799988 834.299988 526.200012 841.400024 486.899994 841.400024 C 454.500000 841.400024 424.299988 836.299988 396.200012 826.099976 C 368.100006 815.900024 346.899994 799.000000 332.700012 775.500000 C 323.899994 761.000000 319.399994 745.000000 319.399994 727.299988 C 319.399994 707.400024 324.899994 689.000000 335.799988 672.099976 C 346.700012 655.200012 361.299988 641.099976 379.399994 629.799988 C 411.399994 609.700012 461.000000 597.400024 528.000000 593.000000 C 520.099976 582.900024 514.299988 573.900024 510.500000 565.900024 C 506.700012 557.900024 504.799988 548.900024 504.799988 538.799988 C 504.799988 529.000000 507.399994 518.599976 512.500000 507.500000 C 501.200012 508.500000 492.899994 509.000000 487.500000 509.000000 C 451.200012 509.000000 420.600006 497.200012 395.700012 473.500000 C 370.799988 449.799988 358.299988 419.799988 358.299988 383.500000 C 358.299988 379.200012 358.500000 375.000000 358.899994 370.799988 L 220.000000 370.799988 L 437.299988 182.600006 L 802.000000 182.600006 L 770.599976 207.199997 L 772.299988 207.500000 Z"/></svg>