<?xml version="1.0" encoding="utf-8"?>
<!-- Svg Vector Icons : http://www.onlinewebfonts.com/icon -->
<!DOCTYPE svg PUBLIC "-//W3C//DTD SVG 1.1//EN" "http://www.w3.org/Graphics/SVG/1.1/DTD/svg11.dtd">
<svg version="1.1" xmlns="http://www.w3.org/2000/svg" xmlns:xlink="http://www.w3.org/1999/xlink" x="0px" y="0px" viewBox="0 0 1000 1000" enable-background="new 0 0 1000 1000" xml:space="preserve">
<metadata> Svg Vector Icons : http://www.onlinewebfonts.com/icon </metadata>
<g><g transform="translate(0.000000,495.000000) scale(0.100000,-0.100000)"><path d="M2043,4461.6c-342.3-110.5-565.5-482.6-497.4-829.1c51-259.3,227.5-478.3,463.4-565.5c163.7-63.8,431.5-53.1,588.9,23.4c140.3,65.9,278.5,206.2,346.5,355c48.9,104.2,57.4,148.8,57.4,312.5c0,165.8-8.5,206.2-59.5,312.5c-127.5,261.5-350.8,406-642,414.5C2200.3,4489.2,2094,4478.6,2043,4461.6z"/><path d="M7710.4,3704.8v-361.4h180.7h180.7v361.4v361.4h-180.7h-180.7V3704.8z"/><path d="M5946,409.8v-2763.6h1977h1977V409.8v2763.6H7923H5946V409.8z M7869.8,2025.4l191.3-191.3h-99.9h-97.8l-12.8-95.7c-21.3-129.7-138.2-355-265.7-512.3c-163.7-197.7-499.6-467.7-724.9-582.5c-87.1-44.6-80.8-34,108.4,150.9c112.7,110.5,240.2,257.2,284.9,325.2c112.7,172.2,204.1,420.9,219,582.5l10.6,131.8h-89.3c-46.7,0-87.1,6.4-87.1,14.9c0,19.1,344.4,367.8,361.4,367.8C7674.3,2216.7,7765.7,2131.7,7869.8,2025.4z M9241,90.9v-1488.1h-308.2h-308.2V76c0,812.1,6.4,1481.7,14.9,1488.1c6.4,8.5,146.7,14.9,308.2,14.9H9241V90.9z M8220.6-344.9v-1052.3h-308.2h-308.2v1037.4c0,571.9,6.4,1045.9,14.9,1052.3c6.4,8.5,146.7,14.9,308.2,14.9h293.4V-344.9z M7217.2-784.9l4.3-612.2h-308.2H6605v616.5v618.6l304-6.4l301.9-6.4L7217.2-784.9z"/><path d="M1354.2,2805.6c-250.8-85-497.4-318.9-582.5-550.6C669.7,1972.2,100,44.1,100-23.9c0-182.8,125.4-310.4,306.1-310.4c85,0,110.5,10.6,185,80.8c82.9,78.7,85,85,380.5,1077.8c163.7,548.5,297.6,1001.3,297.6,1003.4c0,4.2,53.1,6.4,119,6.4h119l-12.8-68c-8.5-38.3-227.5-805.7-486.8-1707L535.8-1577.9l461.3-6.4l463.4-4.3v-1388.2c0-1345.6,2.1-1388.1,42.5-1456.2c61.6-99.9,161.6-153.1,287-153.1c142.4,0,242.3,55.3,301.9,170.1l48.9,91.4v1379.7v1377.5H2279h138.2v-1383.9c0-1530.6-4.3-1477.4,136-1577.4c91.4-65.9,321-68,410.3-2.1c138.2,102.1,133.9,44.6,133.9,1566.7v1375.4h459.2c425.2,0,457.1,2.1,446.4,38.3c-78.7,259.4-954.5,3284.4-963,3326.9l-12.7,59.5l112.7-6.4l112.7-6.4l97.8-287c116.9-344.4,165.8-427.3,295.5-505.9l99.9-57.4l695.1-6.4c437.9-4.3,724.9,2.1,775.9,14.9c44.6,12.8,110.5,53.1,144.6,87.2c55.3,59.5,63.8,82.9,63.8,191.3c0,114.8-6.4,133.9-70.1,195.6l-68,70.1l-663.3,10.6l-661.1,10.6L3822.3,1951c-159.4,454.9-212.6,559.1-352.9,688.8c-148.8,138.2-306.1,202-497.4,204.1h-155.2l-57.4-159.4c-31.9-87.2-114.8-316.7-185-510.2l-123.3-350.8l-55.3,372l-53.1,372l-68,6.4c-38.3,4.3-70.1-2.1-70.1-14.9c0-55.3-89.3-633.5-102-667.5c-10.6-27.6-68,110.5-193.5,461.3l-176.4,501.7h-121.2C1545.6,2854.5,1430.8,2833.2,1354.2,2805.6z"/><path d="M2147.2,2824.7c6.4-17,23.4-70.2,36.1-116.9c21.3-80.8,29.8-87.2,93.5-87.2c61.6,0,72.3,8.5,82.9,61.6c6.4,34,19.1,85,27.6,116.9c12.8,55.3,12.8,55.3-119,55.3C2162,2854.5,2138.7,2848.1,2147.2,2824.7z"/><path d="M6562.5-3474.1c-216.8-522.9-393.3-958.7-393.3-969.4c0-17,270-142.4,308.2-142.4c8.5,0,155.2,338,325.2,750.4c170.1,410.3,363.5,875.8,427.3,1031l116.9,280.6h-195.6h-195.6L6562.5-3474.1z"/><path d="M8411.9-2613.1c21.3-51,212.6-512.3,425.2-1026.8c212.6-514.5,391.2-939.6,395.4-943.9c14.9-17,316.7,125.4,314.6,150.9c-2.1,14.9-176.5,450.7-391.2,969.4l-391.2,939.6h-195.6h-197.7L8411.9-2613.1z"/></g></g>
</svg>