<?xml version="1.0" encoding="utf-8"?>
<!-- Svg Vector Icons : http://www.onlinewebfonts.com/icon -->
<!DOCTYPE svg PUBLIC "-//W3C//DTD SVG 1.1//EN" "http://www.w3.org/Graphics/SVG/1.1/DTD/svg11.dtd">
<svg version="1.1" xmlns="http://www.w3.org/2000/svg" xmlns:xlink="http://www.w3.org/1999/xlink" x="0px" y="0px" viewBox="0 0 1000 1000" enable-background="new 0 0 1000 1000" xml:space="preserve">
<metadata> Svg Vector Icons : http://www.onlinewebfonts.com/icon </metadata>
<g><g><g><path d="M723.6,212.8H270.6c-45.5,0-58.1,15.6-58.1,65.2v274.2c96.5,50.6,179.4,41.6,224.7,40.2c19-1,31.2,3.3,38.6,11.1c1.3,1.1,2.6,2.3,4.1,3.6c8.5,7.9,16.8,14.8,25,20.6c1.7-22.4,14.2-36.9,48-35.2c46,1.4,130.7,10.7,229.1-42.5V278C781.9,231.3,766.7,212.8,723.6,212.8z M397.6,558.8c-48.6,0-88-36.8-88-82.3c0-45.5,39.4-82.3,88-82.3c48.6,0,88,36.8,88,82.3C485.5,522,446.2,558.8,397.6,558.8z M602.3,558.8c-48.6,0-88-36.8-88-82.3c0-45.5,39.4-82.3,88-82.3c48.6,0,88,36.8,88,82.3C690.3,522,650.9,558.8,602.3,558.8z"/><path d="M500,10C229.4,10,10,229.4,10,500s219.4,490,490,490s490-219.4,490-490S770.6,10,500,10z M696.7,650.6C777.1,924.1,500.8,967.5,505,827.3c0,2.5-0.2-75.2-0.3-133c-5.9-1.5-12.2-3.1-19.5-4.8c-0.1,58.3-0.3,140.5-0.3,137.9c4.2,140.2-272,96.8-191.7-176.7c-75.9-31.1-125.4-70.8-151.4-102.6c-13.4-19.8,0.9-40.5,22.7-25.3c2.9,2.1,5.9,4.1,8.8,6.1V246c0-39.2,29.5-70.9,65.8-70.9h511.9c36.3,0,65.8,31.7,65.8,70.9v282.6c2.8-1.9,5.6-3.8,8.4-5.8c21.8-15.2,36.1,5.5,22.7,25.3C822.1,579.9,772.6,619.5,696.7,650.6z"/></g></g><g></g><g></g><g></g><g></g><g></g><g></g><g></g><g></g><g></g><g></g><g></g><g></g><g></g><g></g><g></g></g>
</svg>