<?xml version="1.0" encoding="utf-8"?>
<!-- Svg Vector Icons : http://www.onlinewebfonts.com/icon -->
<!DOCTYPE svg PUBLIC "-//W3C//DTD SVG 1.1//EN" "http://www.w3.org/Graphics/SVG/1.1/DTD/svg11.dtd">
<svg version="1.1" xmlns="http://www.w3.org/2000/svg" xmlns:xlink="http://www.w3.org/1999/xlink" x="0px" y="0px" viewBox="0 0 1000 1000" enable-background="new 0 0 1000 1000" xml:space="preserve">
<metadata> Svg Vector Icons : http://www.onlinewebfonts.com/icon </metadata>
<g><g transform="translate(0.000000,511.000000) scale(0.100000,-0.100000)"><path d="M1838,4520.1c-490.8-83.1-841.1-562-771.8-1054.8c45.5-312.7,241.4-583.8,518.5-714.4c809.4-381.9,1634.7,443.3,1252.7,1252.7C2663.3,4371.6,2245.7,4587.3,1838,4520.1z"/><path d="M6652.9,4520.1c-87.1-25.7-178.1-122.7-203.8-215.7l-21.8-77.2l-1310.1-5.9c-1270.5-5.9-1312.1-7.9-1375.4-45.5c-199.9-120.7-199.9-413.6,0-534.3c65.3-39.6,100.9-39.6,3004.1-39.6c2903.2,0,2938.8,0,3004.1,39.6c199.9,120.7,199.9,413.6,0,534.3c-63.3,37.6-104.9,39.6-1375.4,45.5l-1310.1,5.9l-21.8,77.2c-25.7,97-118.8,190-213.7,217.7C6744,4543.8,6738,4543.8,6652.9,4520.1z"/><path d="M3896.2,2958.6V2642h316.6h316.6v316.6v316.6h-316.6h-316.6V2958.6z"/><path d="M8962.4,1375.4V-524.5H6746H4529.5v791.6v791.6h-316.6h-318.6l5.9-854.9c7.9-995.4,5.9-977.6,192-1165.6c201.9-201.9-19.8-186,2653.9-186c2673.6,0,2452-15.8,2653.8,186c199.9,201.9,184.1,19.8,192,2273.9l5.9,1963.2h-318.6h-316.6V1375.4z"/><path d="M1064.2,2303.6c-447.3-47.5-740.2-217.7-872.7-506.6c-39.6-87.1-61.3-182.1-77.2-320.6C86.6,1223,102.4-413.6,134.1-554.1c11.9-53.4,53.4-164.2,93-243.4c99-199.9,225.6-298.8,447.3-348.3l53.4-11.9l5.9-1331.9c7.9-1531.8-4-1442.7,192-1638.6c176.1-176.1,413.6-229.6,655.1-146.5c158.3,53.4,320.6,219.7,366.1,378c53.4,180.1,53.4,182.1,71.3,89.1c55.4-290.9,314.7-506.6,611.5-504.6c178.1,2,310.7,57.4,437.4,184.1c203.8,203.8,186-67.3,192,2905.2l4,2596.5l1193.3,5.9c1098.4,5.9,1199.3,9.9,1288.3,43.5c239.5,89.1,354.2,227.6,354.2,427.5s-116.7,342.4-352.3,429.5c-93,33.6-201.9,35.6-1605,41.5l-1504,5.9l-25.7-164.3c-47.5-308.7-219.7-914.3-330.5-1153.8l-35.6-79.2l-13.9,306.7c-7.9,168.2-29.7,409.7-47.5,534.3l-33.6,229.6l61.3,98.9c33.6,53.4,69.3,126.7,79.2,162.3l19.8,63.3h-316.6h-316.6l13.9-43.5c17.8-61.3,65.3-152.4,110.8-219.7c39.6-55.4,39.6-59.4,5.9-287c-19.8-126.7-39.6-370.1-47.5-538.3L1747,930.1l-43.5,97c-110.8,243.4-273.1,815.4-322.6,1139.9l-23.7,158.3l-71.2-2C1246.3,2321.4,1147.3,2313.5,1064.2,2303.6z"/><path d="M6429.3-1967.1v-490.8l-714.4-639.2c-391.8-352.3-740.1-664.9-771.8-696.6c-162.3-164.3-83.1-449.2,142.5-510.6c154.4-41.5,188-19.8,783.7,514.6l550.2,492.8l9.9-399.8c7.9-354.3,13.8-407.7,49.5-465.1c120.7-199.9,413.6-199.9,534.3,0c35.6,57.4,41.5,110.8,49.5,465.1l9.9,399.8l552.2-494.7c302.8-271.1,573.9-498.7,603.6-506.6c215.7-57.4,405.7,79.2,405.7,292.9c0,150.4,83.1,67.3-1320,1322l-251.3,225.6v490.8v492.8H6746h-316.6V-1967.1z"/></g></g>
</svg>